<?xml version="1.0" standalone="no"?><!DOCTYPE svg PUBLIC "-//W3C//DTD SVG 1.1//EN" "http://www.w3.org/Graphics/SVG/1.1/DTD/svg11.dtd">
<svg t="1567047074083" class="icon" viewBox="0 0 1024 1024" version="1.1" xmlns="http://www.w3.org/2000/svg" p-id="2920"
     width="128" height="128"><defs><style type="text/css"></style></defs><path d="M512 512m-512 0a512 512 0 1 0 1024 0 512 512 0 1 0-1024 0Z" fill="#FFE5D8" p-id="2921"></path><path d="M512 512m-307.2 0a307.2 307.2 0 1 0 614.4 0 307.2 307.2 0 1 0-614.4 0Z" fill="#F9B720" p-id="2922"></path><path d="M512 766.5664c-67.9936 0-131.8912-26.5216-180.0192-74.5472S257.4336 579.9936 257.4336 512s26.5216-131.8912 74.5472-180.0192 112.0256-74.5472 180.0192-74.5472 131.8912 26.5216 180.0192 74.5472 74.5472 112.0256 74.5472 180.0192-26.5216 131.8912-74.5472 180.0192-112.0256 74.5472-180.0192 74.5472z m0-504.0128c-66.6624 0-129.2288 25.9072-176.3328 73.0112S262.5536 445.3376 262.5536 512c0 66.6624 25.9072 129.2288 73.0112 176.3328s109.7728 73.0112 176.3328 73.0112c66.6624 0 129.2288-25.9072 176.3328-73.0112S761.2416 578.56 761.2416 512c0-66.6624-25.9072-129.2288-73.0112-176.3328s-109.568-73.1136-176.2304-73.1136z" fill="#FC7500" p-id="2923"></path><path d="M576.512 381.3376h49.4592l-94.1056 94.9248h104.448v26.4192h-108.544v34.7136h108.6464V564.224H527.7696v78.336h-32.4608V564.224H387.584v-26.8288h107.7248v-34.7136H387.584v-26.4192h103.5264l-93.5936-94.9248H447.488l64.1024 64.8192 64.9216-64.8192z" fill="#EB5000" p-id="2924"></path></svg>