<?xml version="1.0" standalone="no"?><!DOCTYPE svg PUBLIC "-//W3C//DTD SVG 1.1//EN" "http://www.w3.org/Graphics/SVG/1.1/DTD/svg11.dtd"><svg t="1567047050720" class="icon" viewBox="0 0 1024 1024" version="1.1" xmlns="http://www.w3.org/2000/svg" p-id="2790" xmlns:xlink="http://www.w3.org/1999/xlink" width="128" height="128"><defs><style type="text/css"></style></defs><path d="M1.024 511.488c0 280.064 230.912 510.976 510.976 510.976 280.064 0 510.976-230.912 510.976-510.976C1022.976 231.424 792.064 0.512 512 0.512 232.448 0.512 1.024 231.424 1.024 511.488z" fill="#FBE945" p-id="2791"></path><path d="M120.32 511.488c0 217.088 175.104 392.192 392.192 392.192 217.088 0 392.192-175.104 392.192-392.192 0-217.088-175.104-392.192-392.192-392.192S120.32 294.4 120.32 511.488z" fill="#FBB11B" p-id="2792"></path><path d="M904.192 511.488c0-83.968-28.16-167.936-76.8-230.912-62.976-49.152-146.944-76.8-230.912-76.8-217.088 0-392.192 175.104-392.192 392.192 0 83.968 28.16 167.936 76.8 230.912 62.976 49.152 146.944 76.8 230.912 76.8 217.088 0 392.192-175.104 392.192-392.192z" fill="#FDC72F" p-id="2793"></path><path d="M301.056 429.568L455.68 510.464l98.304-153.088 97.792 153.088 161.792-80.896-97.792 297.472H396.8L301.056 429.568z" fill="#FBB11B" p-id="2794"></path><path d="M251.904 389.12l154.112 80.896L504.32 317.44l97.792 153.088L763.904 389.12l-97.792 297.472H347.136c0 0.512-95.232-297.472-95.232-297.472z" fill="#FBE945" p-id="2795"></path></svg>